<svg width="290" height="63" viewBox="0 0 290 63" fill="none" xmlns="http://www.w3.org/2000/svg">
<path d="M0 0H58L44.5 14H14V44L0 58V0Z" fill="#E11B37"/>
<path d="M63 63L5 63L18.5 49L49 49L49 19L63 5L63 63Z" fill="white"/>
<rect x="20" y="20" width="23" height="23" fill="#E11B37"/>
<path d="M88.9487 45.3574L94.7544 18.8516H98.2178L100.1 21.1138L93.9136 48H90.0898L88.9487 45.3574ZM87.4072 18.8516L92.312 45.5576L91.0508 48H86.6265L80.4404 18.8516H87.4072ZM103.283 45.4175L108.147 18.8516H115.094L108.908 48H104.504L103.283 45.4175ZM100.72 18.8516L106.666 45.5176L105.465 48H101.641L95.3149 21.0737L97.2769 18.8516H100.72ZM142.521 32.8452V34.0264C142.521 36.2552 142.207 38.2572 141.58 40.0322C140.966 41.7939 140.092 43.3021 138.958 44.5566C137.823 45.7979 136.482 46.7521 134.934 47.4194C133.385 48.0734 131.677 48.4004 129.809 48.4004C127.927 48.4004 126.205 48.0734 124.644 47.4194C123.095 46.7521 121.747 45.7979 120.6 44.5566C119.465 43.3021 118.584 41.7939 117.957 40.0322C117.343 38.2572 117.036 36.2552 117.036 34.0264V32.8452C117.036 30.6164 117.343 28.6144 117.957 26.8394C118.584 25.0643 119.458 23.5562 120.58 22.3149C121.714 21.0604 123.055 20.1061 124.604 19.4521C126.165 18.7848 127.887 18.4512 129.769 18.4512C131.637 18.4512 133.345 18.7848 134.894 19.4521C136.455 20.1061 137.803 21.0604 138.938 22.3149C140.072 23.5562 140.953 25.0643 141.58 26.8394C142.207 28.6144 142.521 30.6164 142.521 32.8452ZM135.394 34.0264V32.8052C135.394 31.3638 135.267 30.0959 135.014 29.0015C134.773 27.8937 134.413 26.9661 133.933 26.2188C133.452 25.4714 132.858 24.9108 132.151 24.5371C131.457 24.1501 130.663 23.9565 129.769 23.9565C128.834 23.9565 128.02 24.1501 127.326 24.5371C126.632 24.9108 126.052 25.4714 125.584 26.2188C125.117 26.9661 124.764 27.8937 124.523 29.0015C124.297 30.0959 124.183 31.3638 124.183 32.8052V34.0264C124.183 35.4544 124.297 36.7223 124.523 37.8301C124.764 38.9245 125.117 39.8521 125.584 40.6128C126.065 41.3735 126.652 41.9474 127.346 42.3345C128.054 42.7215 128.874 42.915 129.809 42.915C130.703 42.915 131.497 42.7215 132.191 42.3345C132.885 41.9474 133.465 41.3735 133.933 40.6128C134.413 39.8521 134.773 38.9245 135.014 37.8301C135.267 36.7223 135.394 35.4544 135.394 34.0264ZM146.165 18.8516H157.636C159.878 18.8516 161.826 19.1852 163.481 19.8525C165.136 20.5199 166.411 21.5075 167.305 22.8154C168.213 24.1234 168.667 25.7383 168.667 27.6602C168.667 29.3285 168.406 30.7231 167.886 31.8442C167.365 32.9653 166.638 33.8929 165.704 34.627C164.783 35.3477 163.708 35.9416 162.48 36.4087L160.178 37.71H150.549L150.509 32.2847H157.636C158.53 32.2847 159.271 32.1245 159.858 31.8042C160.445 31.4839 160.886 31.0301 161.179 30.4429C161.486 29.8423 161.64 29.1283 161.64 28.3008C161.64 27.46 161.486 26.7393 161.179 26.1387C160.872 25.5381 160.418 25.0776 159.818 24.7573C159.231 24.437 158.503 24.2769 157.636 24.2769H153.191V48H146.165V18.8516ZM162.12 48L155.674 35.1074L163.121 35.0674L169.647 47.6997V48H162.12ZM179.938 18.8516V48H172.911V18.8516H179.938ZM197.334 18.8516L186.043 33.626L179.437 40.853L178.156 34.4067L182.38 28.0005L188.666 18.8516H197.334ZM189.026 48L181.499 34.8672L186.964 30.8433L197.334 48H189.026ZM202.62 18.8516H208.345L214.852 39.1313L221.358 18.8516H227.083L217.174 48H212.529L202.62 18.8516ZM199.136 18.8516H205.062L206.163 41.1934V48H199.136V18.8516ZM224.641 18.8516H230.587V48H223.54V41.1934L224.641 18.8516ZM247.804 24.9775L240.697 48H233.149L243.86 18.8516H248.645L247.804 24.9775ZM253.689 48L246.562 24.9775L245.642 18.8516H250.486L261.257 48H253.689ZM253.409 37.1294V42.5547H238.455V37.1294H253.409ZM287.743 18.8516V48H280.736L270.426 29.8623V48H263.399V18.8516H270.426L280.736 36.9893V18.8516H287.743Z" fill="white"/>
</svg>
