<svg width="291" height="63" viewBox="0 0 291 63" fill="none" xmlns="http://www.w3.org/2000/svg">
<path d="M0 0H58L44.5 14H14V44L0 58V0Z" fill="#E11B37"/>
<path d="M63 63L5 63L18.5 49L49 49L49 19L63 5L63 63Z" fill="#080808"/>
<rect x="20" y="20" width="23" height="23" fill="#E11B37"/>
<path d="M89.9487 45.3574L95.7544 18.8516H99.2178L101.1 21.1138L94.9136 48H91.0898L89.9487 45.3574ZM88.4072 18.8516L93.312 45.5576L92.0508 48H87.6265L81.4404 18.8516H88.4072ZM104.283 45.4175L109.147 18.8516H116.094L109.908 48H105.504L104.283 45.4175ZM101.72 18.8516L107.666 45.5176L106.465 48H102.641L96.3149 21.0737L98.2769 18.8516H101.72ZM143.521 32.8452V34.0264C143.521 36.2552 143.207 38.2572 142.58 40.0322C141.966 41.7939 141.092 43.3021 139.958 44.5566C138.823 45.7979 137.482 46.7521 135.934 47.4194C134.385 48.0734 132.677 48.4004 130.809 48.4004C128.927 48.4004 127.205 48.0734 125.644 47.4194C124.095 46.7521 122.747 45.7979 121.6 44.5566C120.465 43.3021 119.584 41.7939 118.957 40.0322C118.343 38.2572 118.036 36.2552 118.036 34.0264V32.8452C118.036 30.6164 118.343 28.6144 118.957 26.8394C119.584 25.0643 120.458 23.5562 121.58 22.3149C122.714 21.0604 124.055 20.1061 125.604 19.4521C127.165 18.7848 128.887 18.4512 130.769 18.4512C132.637 18.4512 134.345 18.7848 135.894 19.4521C137.455 20.1061 138.803 21.0604 139.938 22.3149C141.072 23.5562 141.953 25.0643 142.58 26.8394C143.207 28.6144 143.521 30.6164 143.521 32.8452ZM136.394 34.0264V32.8052C136.394 31.3638 136.267 30.0959 136.014 29.0015C135.773 27.8937 135.413 26.9661 134.933 26.2188C134.452 25.4714 133.858 24.9108 133.151 24.5371C132.457 24.1501 131.663 23.9565 130.769 23.9565C129.834 23.9565 129.02 24.1501 128.326 24.5371C127.632 24.9108 127.052 25.4714 126.584 26.2188C126.117 26.9661 125.764 27.8937 125.523 29.0015C125.297 30.0959 125.183 31.3638 125.183 32.8052V34.0264C125.183 35.4544 125.297 36.7223 125.523 37.8301C125.764 38.9245 126.117 39.8521 126.584 40.6128C127.065 41.3735 127.652 41.9474 128.346 42.3345C129.054 42.7215 129.874 42.915 130.809 42.915C131.703 42.915 132.497 42.7215 133.191 42.3345C133.885 41.9474 134.465 41.3735 134.933 40.6128C135.413 39.8521 135.773 38.9245 136.014 37.8301C136.267 36.7223 136.394 35.4544 136.394 34.0264ZM147.165 18.8516H158.636C160.878 18.8516 162.826 19.1852 164.481 19.8525C166.136 20.5199 167.411 21.5075 168.305 22.8154C169.213 24.1234 169.667 25.7383 169.667 27.6602C169.667 29.3285 169.406 30.7231 168.886 31.8442C168.365 32.9653 167.638 33.8929 166.704 34.627C165.783 35.3477 164.708 35.9416 163.48 36.4087L161.178 37.71H151.549L151.509 32.2847H158.636C159.53 32.2847 160.271 32.1245 160.858 31.8042C161.445 31.4839 161.886 31.0301 162.179 30.4429C162.486 29.8423 162.64 29.1283 162.64 28.3008C162.64 27.46 162.486 26.7393 162.179 26.1387C161.872 25.5381 161.418 25.0776 160.818 24.7573C160.231 24.437 159.503 24.2769 158.636 24.2769H154.191V48H147.165V18.8516ZM163.12 48L156.674 35.1074L164.121 35.0674L170.647 47.6997V48H163.12ZM180.938 18.8516V48H173.911V18.8516H180.938ZM198.334 18.8516L187.043 33.626L180.437 40.853L179.156 34.4067L183.38 28.0005L189.666 18.8516H198.334ZM190.026 48L182.499 34.8672L187.964 30.8433L198.334 48H190.026ZM203.62 18.8516H209.345L215.852 39.1313L222.358 18.8516H228.083L218.174 48H213.529L203.62 18.8516ZM200.136 18.8516H206.062L207.163 41.1934V48H200.136V18.8516ZM225.641 18.8516H231.587V48H224.54V41.1934L225.641 18.8516ZM248.804 24.9775L241.697 48H234.149L244.86 18.8516H249.645L248.804 24.9775ZM254.689 48L247.562 24.9775L246.642 18.8516H251.486L262.257 48H254.689ZM254.409 37.1294V42.5547H239.455V37.1294H254.409ZM288.743 18.8516V48H281.736L271.426 29.8623V48H264.399V18.8516H271.426L281.736 36.9893V18.8516H288.743Z" fill="black"/>
</svg>
